<svg width="100" height="102" viewBox="0 0 100 102" fill="none" xmlns="http://www.w3.org/2000/svg">
<path d="M89.8424 87.5655H68.4892C73.9291 85.3927 78.0889 82.3018 81.2604 78.5585C94.2016 76.5939 100 65.8921 100 56.042C100 49.0495 96.1062 43.2113 91.0669 42.1904C91.0673 42.1374 91.0679 42.0844 91.0683 42.0317C91.0683 41.156 90.7179 40.2803 90.0174 39.5797C89.3169 38.8792 88.4412 38.5289 87.5655 38.5289H7.00537C6.12968 38.5289 5.25398 38.8792 4.55346 39.5797C3.85294 40.2803 3.50259 41.156 3.50259 42.0317C3.63809 60.8669 6.91907 79.9116 26.0816 87.5657H4.55346C2.10155 87.5657 0 89.4921 0 92.1191C0 94.2207 1.40103 95.7969 3.85294 96.3222L26.0945 97.8985C26.6199 97.8985 27.1454 98.2488 27.3204 98.7742C28.1961 100.526 29.9473 101.576 31.8738 101.576H60.9456C62.872 101.576 64.6234 100.525 65.3239 98.7742C65.4991 98.2488 66.0244 97.8985 66.5498 97.8985L90.3675 96.3222H90.5427C92.9946 95.7969 94.3957 94.2207 94.3957 92.1191C94.3957 89.667 92.4693 87.5655 89.8424 87.5655ZM91.0683 45.8844C94.0455 46.9353 96.3222 51.1384 96.3222 56.042C96.3222 62.8666 93.1744 71.0899 84.4337 74.0731C84.5801 73.8245 84.7233 73.574 84.8636 73.3214C89.7275 64.8845 90.7282 54.7245 91.0683 45.8844ZM7.00537 42.0315H87.5657C87.3905 65.6741 82.3117 87.5655 47.2856 87.5655C12.2596 87.5655 7.18055 65.6741 7.00537 42.0315ZM90.1926 92.8195L66.7249 94.3957C64.9735 94.5709 63.3975 95.6215 62.5218 97.1977C62.1715 97.7231 61.6461 98.0734 61.1208 98.0734H31.874C31.3487 98.0734 30.8232 97.7231 30.473 97.1977C29.5973 95.6215 28.0211 94.5709 26.2699 94.3957L4.37848 92.8195C3.50279 92.6443 3.50279 92.2941 3.50279 92.1189C3.50279 91.5936 4.02812 91.0681 4.55366 91.0681H90.0174C90.5427 91.0681 91.0683 91.5934 91.0683 92.1189C91.0683 92.2941 91.0683 92.6443 90.1926 92.8195Z" fill="#77C1E5"/>
<path d="M46.0597 14.5359C43.4328 17.1628 42.0317 19.7899 42.0317 22.592C42.0317 25.394 43.4328 28.1961 46.0597 30.9982C46.41 31.3485 46.7602 31.5235 47.2855 31.5235C47.8109 31.5235 48.1612 31.3483 48.5114 30.9982C49.2119 30.2977 49.2119 29.2468 48.5114 28.5463C46.585 26.4447 45.5341 24.5183 45.5341 22.5918C45.5341 20.6652 46.585 18.7388 48.5114 16.9876C51.1385 14.5359 52.5395 11.7338 52.5395 8.93178C52.5395 6.12971 51.3136 3.15246 48.5116 0.525571C47.8111 -0.174946 46.7602 -0.174946 46.0597 0.525571C45.3591 1.22609 45.3591 2.27696 46.0597 2.97748C47.986 5.07903 49.0369 7.00541 49.0369 8.93198C49.0369 10.8585 47.986 12.7845 46.0597 14.5359Z" fill="#77C1E5"/>
<path d="M61.2959 22.592C61.2959 25.3941 62.6969 28.1961 65.3238 30.9982C65.6742 31.3485 66.0243 31.5235 66.5497 31.5235C66.9 31.5235 67.4254 31.3484 67.6006 30.9982C68.3011 30.2977 68.3011 29.2468 67.6006 28.5463C65.6742 26.4447 64.6233 24.5184 64.6233 22.5918C64.6233 20.6652 65.6742 18.7388 67.6006 16.9876C70.4026 14.5357 71.8037 11.7337 71.8037 8.9316C71.8037 5.95435 70.5778 3.15228 67.7757 0.525388C67.0752 -0.175129 66.0243 -0.175129 65.3238 0.525388C64.6233 1.22591 64.6233 2.27678 65.3238 2.9773C67.2502 5.07885 68.3011 7.00522 68.3011 8.9318C68.3011 10.8584 67.2502 12.6096 65.3238 14.5359C62.6969 17.1628 61.2959 19.7899 61.2959 22.592Z" fill="#77C1E5"/>
<path d="M24.5186 22.592C24.5186 25.3941 25.9196 28.1961 28.5465 30.9982C28.8968 31.3485 29.247 31.5235 29.7723 31.5235C30.1227 31.5235 30.648 31.3484 30.8232 30.9982C31.5237 30.2977 31.5237 29.2468 30.8232 28.5463C28.8968 26.4447 27.846 24.5184 27.846 22.5918C27.846 20.6652 28.8968 18.7388 30.8232 16.9876C33.6253 14.5357 35.0263 11.7337 35.0263 8.9316C35.0263 5.95435 33.8005 3.15228 30.9984 0.525388C30.2979 -0.175129 29.247 -0.175129 28.5465 0.525388C27.846 1.22591 27.846 2.27678 28.5465 2.9773C30.4729 5.07885 31.5237 7.00522 31.5237 8.9318C31.5237 10.8584 30.4729 12.6096 28.5465 14.5359C25.9196 17.1628 24.5186 19.7899 24.5186 22.592Z" fill="#77C1E5"/>
<path d="M37.1276 78.8089C24.6933 76.7074 18.3886 69.7022 15.7615 55.6917C15.5864 54.816 14.5357 54.1155 13.66 54.2906C12.7843 54.4658 12.0838 55.5165 12.259 56.3922C15.061 71.9788 22.5917 79.8598 36.4271 82.3115C36.6023 82.3115 36.6023 82.3115 36.7775 82.3115C37.6532 82.3115 38.3537 81.7862 38.5289 80.9105C38.7038 79.8598 38.0033 78.9841 37.1276 78.8089Z" fill="#77C1E5"/>
</svg>
