<svg width="45" height="46" viewBox="0 0 45 46" fill="none" xmlns="http://www.w3.org/2000/svg">
<g clip-path="url(#clip0)">
<path d="M22.5 4.39547C28.5075 4.39547 29.22 4.41797 31.5938 4.52672C37.6912 4.80422 40.5394 7.69734 40.8169 13.7498C40.9256 16.1217 40.9462 16.8342 40.9462 22.8417C40.9462 28.8511 40.9237 29.5617 40.8169 31.9336C40.5375 37.9805 37.6969 40.8792 31.5938 41.1567C29.22 41.2655 28.5112 41.288 22.5 41.288C16.4925 41.288 15.78 41.2655 13.4081 41.1567C7.29563 40.8773 4.4625 37.9711 4.185 31.9317C4.07625 29.5598 4.05375 28.8492 4.05375 22.8398C4.05375 16.8323 4.07812 16.1217 4.185 13.748C4.46438 7.69734 7.305 4.80234 13.4081 4.52484C15.7819 4.41797 16.4925 4.39547 22.5 4.39547ZM22.5 0.339844C16.3894 0.339844 15.6244 0.366094 13.2244 0.474844C5.05313 0.849844 0.511875 5.38359 0.136875 13.5623C0.02625 15.9642 0 16.7292 0 22.8398C0 28.9505 0.02625 29.7173 0.135 32.1173C0.51 40.2886 5.04375 44.8298 13.2225 45.2048C15.6244 45.3136 16.3894 45.3398 22.5 45.3398C28.6106 45.3398 29.3775 45.3136 31.7775 45.2048C39.9412 44.8298 44.4938 40.2961 44.8631 32.1173C44.9738 29.7173 45 28.9505 45 22.8398C45 16.7292 44.9737 15.9642 44.865 13.5642C44.4975 5.40047 39.9581 0.851719 31.7794 0.476719C29.3775 0.366094 28.6106 0.339844 22.5 0.339844V0.339844ZM22.5 11.2861C16.1194 11.2861 10.9462 16.4592 10.9462 22.8398C10.9462 29.2205 16.1194 34.3955 22.5 34.3955C28.8806 34.3955 34.0538 29.2223 34.0538 22.8398C34.0538 16.4592 28.8806 11.2861 22.5 11.2861ZM22.5 30.3398C18.3581 30.3398 15 26.9836 15 22.8398C15 18.698 18.3581 15.3398 22.5 15.3398C26.6419 15.3398 30 18.698 30 22.8398C30 26.9836 26.6419 30.3398 22.5 30.3398ZM34.5112 8.13047C33.0187 8.13047 31.8094 9.33984 31.8094 10.8305C31.8094 12.3211 33.0187 13.5305 34.5112 13.5305C36.0019 13.5305 37.2094 12.3211 37.2094 10.8305C37.2094 9.33984 36.0019 8.13047 34.5112 8.13047Z" fill="#CD7E80"/>
</g>
<defs>
<clipPath id="clip0">
<rect width="45" height="45" fill="white" transform="translate(0 0.339844)"/>
</clipPath>
</defs>
</svg>
