<svg width="100" height="96" viewBox="0 0 100 96" fill="none" xmlns="http://www.w3.org/2000/svg">
<path d="M100 57.2916C100 54.7875 99.0041 52.4541 97.2875 50.7332C99.2334 48.6041 100.225 45.7498 99.9541 42.7791C99.4666 37.4832 94.6957 33.3332 89.0875 33.3332H63.35C64.625 29.4623 66.6666 22.3666 66.6666 16.6666C66.6666 7.6291 58.9875 0 54.1666 0C49.8416 0 46.7457 2.4375 46.6166 2.5375C46.1207 2.9334 45.8332 3.5334 45.8332 4.1666V18.2957L33.8291 44.2916L33.3332 44.5457V43.7498C33.3332 42.5998 32.3998 41.6664 31.2498 41.6664H10.4166C4.6709 41.6666 0 46.3375 0 52.0832V85.4166C0 91.1625 4.6709 95.8332 10.4166 95.8332H22.9166C27.4207 95.8332 31.2707 92.9582 32.7207 88.9457C36.1875 90.7291 40.8541 91.6666 43.75 91.6666H81.9959C86.5334 91.6666 90.5043 88.6082 91.4375 84.3916C91.9166 82.2166 91.6375 80.0291 90.6875 78.1291C93.7625 76.5832 95.8334 73.4041 95.8334 69.7916C95.8334 68.3166 95.4959 66.9041 94.8584 65.6291C97.9334 64.0791 100 60.9041 100 57.2916ZM91.2125 62.4332C90.4084 62.5291 89.7291 63.0748 89.4709 63.8457C89.2168 64.6166 89.4293 65.4623 90.0209 66.0207C91.0793 67.0166 91.6668 68.3582 91.6668 69.7916C91.6668 72.4207 89.6793 74.6291 87.0502 74.9332C86.2461 75.0291 85.5668 75.5748 85.3086 76.3457C85.0545 77.1166 85.267 77.9623 85.8586 78.5207C87.2295 79.8123 87.7795 81.6248 87.367 83.4916C86.8545 85.8166 84.5961 87.5 81.9961 87.5H43.75C40.3666 87.5 34.6916 85.9125 32.725 83.9416C32.1291 83.35 31.2291 83.175 30.4541 83.4916C29.675 83.8125 29.1666 84.575 29.1666 85.4166C29.1666 88.8625 26.3625 91.6666 22.9166 91.6666H10.4166C6.9707 91.6666 4.1666 88.8625 4.1666 85.4166V52.0832C4.1666 48.6373 6.9707 45.8332 10.4166 45.8332H29.1666V47.9166C29.1666 48.6375 29.5416 49.3082 30.1582 49.6916C30.7666 50.0582 31.5332 50.0957 32.1832 49.7791L36.3498 47.6957C36.7707 47.4873 37.1082 47.1373 37.3082 46.7082L49.8082 19.6248C49.9332 19.3498 49.9998 19.0498 49.9998 18.7498V5.2957C50.8666 4.8166 52.3709 4.1666 54.1666 4.1666C56.45 4.1666 62.5 9.8416 62.5 16.6666C62.5 24 58.5084 34.5707 58.4709 34.675C58.2293 35.3125 58.3125 36.0334 58.7 36.6C59.0916 37.1625 59.7334 37.5 60.4166 37.5H89.0875C92.5625 37.5 95.5125 39.9875 95.8041 43.1625C96.025 45.5375 94.8832 47.7959 92.8375 49.0584C92.2 49.45 91.8209 50.1584 91.85 50.9125C91.8791 51.6666 92.3125 52.3416 92.9791 52.6875C94.7416 53.5834 95.8332 55.35 95.8332 57.2916C95.8334 59.9207 93.8459 62.1291 91.2125 62.4332Z" fill="#77C1E5"/>
</svg>
