<svg width="72" height="100" viewBox="0 0 72 100" fill="none" xmlns="http://www.w3.org/2000/svg">
<path d="M36.3257 21.9149C29.2782 21.9149 23.542 27.6512 23.542 34.6987C23.542 41.7462 29.2782 47.4824 36.3257 47.4824C43.3732 47.4824 49.1095 41.7462 49.1095 34.6987C49.1095 27.6512 43.3732 21.9149 36.3257 21.9149ZM36.3257 43.8299C31.2908 43.8299 27.1945 39.7336 27.1945 34.6987C27.1945 29.6637 31.2908 25.5674 36.3257 25.5674C41.3607 25.5674 45.457 29.6637 45.457 34.6987C45.457 39.7336 41.3607 43.8299 36.3257 43.8299Z" fill="#77C1E5"/>
<path d="M60.7663 10.258C54.1516 3.64337 45.3564 0 36.0023 0C26.6464 0 17.853 3.64337 11.2384 10.258C-1.003 22.4976 -2.52426 45.5266 7.9438 59.4792L36.0023 100L64.0188 59.5358C74.5289 45.5266 73.0076 22.4976 60.7663 10.258ZM61.0566 57.4009L36.0023 93.5826L10.9078 57.3443C1.41313 44.6847 2.77369 23.8874 13.8225 12.8404C19.7469 6.91601 27.6235 3.6525 36.0023 3.6525C44.3812 3.6525 52.2578 6.91601 58.184 12.8404C69.2328 23.8874 70.5933 44.6847 61.0566 57.4009Z" fill="#77C1E5"/>
</svg>
