<svg width="45" height="46" viewBox="0 0 45 46" fill="none" xmlns="http://www.w3.org/2000/svg">
<g clip-path="url(#clip0)">
<path d="M22.5 4.08984C32.8387 4.08984 41.25 12.5011 41.25 22.8398C41.25 33.1786 32.8387 41.5898 22.5 41.5898C12.1613 41.5898 3.75 33.1786 3.75 22.8398C3.75 12.5011 12.1613 4.08984 22.5 4.08984ZM22.5 0.339844C10.0744 0.339844 0 10.4142 0 22.8398C0 35.2655 10.0744 45.3398 22.5 45.3398C34.9256 45.3398 45 35.2655 45 22.8398C45 10.4142 34.9256 0.339844 22.5 0.339844ZM23.5894 30.3342C24.1594 30.3342 24.3937 29.9517 24.3862 29.4755C24.3562 27.6792 25.0538 26.7117 26.3175 27.9717C27.7125 29.3667 27.9975 30.3342 29.6944 30.3342H32.6963C33.4519 30.3342 33.75 30.0905 33.75 29.708C33.75 28.898 32.4169 27.4692 31.29 26.423C29.7075 24.9548 29.6362 24.9192 30.9975 23.153C32.685 20.9611 34.8956 18.1523 32.9419 18.1523H29.2087C28.4831 18.1523 28.4325 18.5592 28.1756 19.1686C27.2419 21.368 25.47 24.218 24.795 23.783C24.0881 23.3273 24.4125 21.5273 24.4669 18.8517C24.4819 18.1448 24.4781 17.6592 23.3962 17.408C22.8075 17.2711 22.2319 17.2148 21.7031 17.2148C19.5712 17.2148 18.0994 18.1092 18.9338 18.2648C20.4056 18.5386 20.2669 21.7261 19.9219 23.1023C19.3237 25.4986 17.0756 21.2048 16.1381 19.0673C15.9131 18.5517 15.8475 18.1523 15.0394 18.1523H11.9888C11.5256 18.1523 11.25 18.3023 11.25 18.6361C11.25 19.2005 14.0231 24.9361 16.6725 27.7955C19.2581 30.5836 21.8138 30.3342 23.5894 30.3342Z" fill="#CD7E80"/>
</g>
<defs>
<clipPath id="clip0">
<rect width="45" height="45" fill="white" transform="translate(0 0.339844)"/>
</clipPath>
</defs>
</svg>
