<svg width="100" height="100" viewBox="0 0 100 100" fill="none" xmlns="http://www.w3.org/2000/svg">
<path d="M99.8814 69.3818L98.5114 65.9584C97.0864 62.3966 94.3864 59.5433 90.9063 57.9267L80.4229 53.0568C79.9813 52.8201 79.2678 52.1968 78.7796 51.6667H89.5995C89.6528 51.6667 89.8061 51.6617 89.8595 51.6568C89.8878 51.6535 92.8896 51.3351 95.8661 50.3552C97.4077 49.8486 98.5712 48.7486 99.0562 47.3368C99.5429 45.9218 99.2995 44.3318 98.3878 42.9735C95.1077 38.0886 89.5761 28.4218 89.3845 18.5118C89.3745 18.3284 88.2395 0.15 69.9862 0C63.7227 0.0517579 58.6621 2.32637 55.2141 6.60314C51.6119 2.91251 46.2627 0.0656252 38.3191 0C15.5458 0.188282 14.0991 23.2817 14.0841 23.5684C13.7907 38.7384 3.61237 53.5935 0.500647 57.7851C-0.276113 58.8318 -0.122597 60.3068 0.847327 61.1418C4.78406 64.5351 12.8874 64.98 13.3124 65.0002H26.6441C26.6824 65.1851 26.6824 65.4502 26.6025 65.6134L26.4091 66.0234C26.0624 66.7635 25.6724 67.5967 25.2724 67.8467L14.4257 71.9568C8.70243 74.1285 4.4573 78.9836 3.06901 84.9469L0.0440051 97.9553C-0.0725968 98.452 0.0457629 98.9719 0.360607 99.3704C0.675452 99.7688 1.15905 100 1.66569 100H74.9993C75.5077 100 75.9893 99.7686 76.3044 99.3702C76.621 98.9719 76.7378 98.4518 76.6227 97.9551L73.596 84.9467C72.2077 78.9834 67.9643 74.1283 62.2393 71.9566L61.4742 71.6666H98.3329C98.8863 71.6666 99.4029 71.3916 99.713 70.935C100.023 70.4769 100.086 69.8951 99.8814 69.3818ZM70.3508 85.702L72.9008 96.667H3.76413L6.31414 85.702C7.45086 80.8236 10.9259 76.8504 15.6075 75.0736L26.5593 70.9236C26.6111 70.9037 26.6626 70.8803 26.7126 70.8553C28.166 70.1303 28.8359 68.7019 29.4259 67.4402L29.6093 67.0553C30.1976 65.8302 30.116 64.1836 29.4042 63.0552C28.8509 62.1718 27.9675 61.667 26.9843 61.667L13.3976 61.6687C11.5325 61.572 6.44578 60.9254 3.66921 59.0988C7.39246 53.9519 17.119 39.0552 17.4157 23.685C17.4591 22.8618 18.6757 3.49669 38.3191 3.33321C45.9584 3.3963 50.815 6.37521 53.9008 10.0334C53.9996 10.2182 54.1346 10.3858 54.3025 10.5256C58.7623 16.1791 59.2229 23.1764 59.2475 23.6331C59.5475 39.0564 69.2707 53.9497 72.9958 59.0998C70.2225 60.9232 65.1407 61.5714 63.3524 61.6664H49.6824C48.7041 61.6664 47.8258 62.1697 47.2724 63.0465C46.5592 64.1781 46.4691 65.8248 47.0541 67.0482L47.224 67.4133C47.8189 68.6849 48.4924 70.1265 49.9541 70.8549C50.0023 70.8799 50.0541 70.9031 50.1074 70.9232L61.0574 75.0732C65.7409 76.8502 69.2159 80.8234 70.3508 85.702ZM52.6807 68.3336L51.3924 67.8453C50.9891 67.5935 50.5957 66.7504 50.2457 66.0037L50.0623 65.6154C49.9855 65.457 49.9891 65.1886 50.0289 65.0004L63.4373 64.9988C63.7807 64.9804 71.8973 64.5338 75.8307 61.1304C76.7891 60.2988 76.9407 58.8337 76.1708 57.7937C73.0575 53.6037 62.8758 38.7487 62.5791 23.5153C62.5715 23.3817 62.0916 15.7526 57.4035 9.22014C60.2367 5.35919 64.4709 3.37833 69.9862 3.33341C85.0429 3.45841 86.0196 18.0635 86.0528 18.6301C86.2595 29.3386 92.1362 39.6435 95.6212 44.832C95.9495 45.322 96.0495 45.8269 95.9028 46.2536C95.7579 46.6753 95.3761 47.0087 94.8245 47.1886C92.5579 47.9353 90.0429 48.2904 89.5995 48.3335H78.3094C77.1694 48.3335 76.0462 48.9152 75.451 49.8136C74.9493 50.572 74.8594 51.4753 75.2061 52.2953C75.8327 53.7802 77.9094 55.4919 78.9311 56.0369L89.5011 60.9486C92.2077 62.207 94.3077 64.4254 95.4161 67.1953L95.8712 68.3336H52.6807Z" fill="#77C1E5"/>
</svg>
